# xmcd CD database file
#
# Track frame offsets:
#	150
#	16015
#	32420
#	46477
#	60915
#	73414
#	89052
#	102952
#	115312
#	131372
#	146502
#
# Disc length: 2161 seconds
#
# Revision: 0
# Processed by: cddbd v1.5.2PL0 Copyright (c) Steve Scherf et al.
# Submitted via: CDex 1.51
#
DISCID=92086f0b
DTITLE=Michael Ray - Amos
DYEAR=2018
DGENRE=Country
TTITLE0=Fan Girl
TTITLE1=One That Got Away
TTITLE2=Summer Water
TTITLE3=Get To You
TTITLE4=Forget About It
TTITLE5=Her World Or Mine
TTITLE6=You're On
TTITLE7=I'm Gonna Miss You
TTITLE8=Dancing Forever
TTITLE9=Girl From Spring Break
TTITLE10=Drink One For Me
EXTD=YEAR: 2018
EXTT0=
EXTT1=
EXTT2=
EXTT3=
EXTT4=
EXTT5=
EXTT6=
EXTT7=
EXTT8=
EXTT9=
EXTT10=
PLAYORDER=
